<svg width="375" height="98" viewBox="0 0 375 98" fill="none" xmlns="http://www.w3.org/2000/svg">
<rect width="375" height="98" fill="#222222"/>
<path d="M53 37H43C40.7909 37 39 35.2091 39 33V26.7076C39 25.3089 39.7306 24.0118 40.9268 23.2868L45.9268 20.2565C47.2011 19.4842 48.7989 19.4842 50.0732 20.2565L55.0732 23.2868C56.2694 24.0117 57 25.3089 57 26.7076V33C57 35.2091 55.2091 37 53 37Z" stroke="#7C3AED" stroke-width="1.5" stroke-linecap="round" stroke-linejoin="round"/>
<path d="M45 33H51" stroke="#7C3AED" stroke-width="1.5" stroke-linecap="round" stroke-linejoin="round"/>
<path d="M34.9498 55V47.62H36.1798V50.81H39.2898V47.62H40.5298V55H39.2898V51.92H36.1798V55H34.9498ZM44.0927 55.05C43.6727 55.05 43.3093 55.0067 43.0027 54.92C42.696 54.8333 42.446 54.6867 42.2527 54.48C42.0593 54.2733 41.916 53.9933 41.8227 53.64C41.7293 53.2867 41.6827 52.8433 41.6827 52.31C41.6827 51.7567 41.7293 51.3033 41.8227 50.95C41.916 50.59 42.0593 50.31 42.2527 50.11C42.4527 49.9033 42.706 49.7633 43.0127 49.69C43.3193 49.61 43.6793 49.57 44.0927 49.57C44.5193 49.57 44.886 49.6133 45.1927 49.7C45.4993 49.78 45.7493 49.92 45.9427 50.12C46.136 50.32 46.2793 50.6 46.3727 50.96C46.466 51.3133 46.5127 51.7633 46.5127 52.31C46.5127 52.85 46.466 53.3 46.3727 53.66C46.286 54.0133 46.146 54.2933 45.9527 54.5C45.7593 54.7 45.5093 54.8433 45.2027 54.93C44.896 55.01 44.526 55.05 44.0927 55.05ZM44.0927 54.06C44.2993 54.06 44.476 54.0433 44.6227 54.01C44.7693 53.97 44.8893 53.8933 44.9827 53.78C45.0827 53.66 45.156 53.4833 45.2027 53.25C45.2493 53.01 45.2727 52.6933 45.2727 52.3C45.2727 51.9133 45.2493 51.6033 45.2027 51.37C45.156 51.1367 45.0827 50.9633 44.9827 50.85C44.8893 50.73 44.7693 50.6533 44.6227 50.62C44.476 50.58 44.2993 50.56 44.0927 50.56C43.8927 50.56 43.7193 50.58 43.5727 50.62C43.426 50.6533 43.306 50.73 43.2127 50.85C43.1193 50.9633 43.046 51.1367 42.9927 51.37C42.946 51.6033 42.9227 51.9133 42.9227 52.3C42.9227 52.6933 42.946 53.01 42.9927 53.25C43.046 53.4833 43.1193 53.66 43.2127 53.78C43.306 53.8933 43.426 53.97 43.5727 54.01C43.7193 54.0433 43.8927 54.06 44.0927 54.06ZM47.6144 55V49.64H48.6244L48.8544 50.2C49.101 50.0267 49.371 49.8767 49.6644 49.75C49.9644 49.6167 50.3177 49.55 50.7244 49.55C51.0577 49.55 51.3377 49.6233 51.5644 49.77C51.7977 49.91 51.971 50.0933 52.0844 50.32C52.2377 50.2 52.421 50.0833 52.6344 49.97C52.8544 49.85 53.0877 49.75 53.3344 49.67C53.581 49.59 53.8244 49.55 54.0644 49.55C54.4777 49.55 54.8077 49.6333 55.0544 49.8C55.3077 49.96 55.4877 50.1867 55.5944 50.48C55.701 50.7667 55.7544 51.1 55.7544 51.48V55H54.5144V51.58C54.5144 51.3867 54.4777 51.2233 54.4044 51.09C54.331 50.9567 54.2277 50.8533 54.0944 50.78C53.9677 50.7067 53.811 50.67 53.6244 50.67C53.3844 50.67 53.141 50.7167 52.8944 50.81C52.6544 50.9033 52.4344 51.0167 52.2344 51.15C52.261 51.2167 52.2777 51.29 52.2844 51.37C52.2977 51.45 52.3044 51.53 52.3044 51.61V55H51.0644V51.58C51.0644 51.3867 51.0277 51.2233 50.9544 51.09C50.881 50.9567 50.7777 50.8533 50.6444 50.78C50.5177 50.7067 50.361 50.67 50.1744 50.67C50.001 50.67 49.8377 50.6867 49.6844 50.72C49.5377 50.7533 49.3977 50.8033 49.2644 50.87C49.131 50.9367 48.9944 51.0167 48.8544 51.11V55H47.6144ZM59.1696 55.05C58.5896 55.05 58.1263 54.97 57.7796 54.81C57.4396 54.65 57.1929 54.3733 57.0396 53.98C56.8863 53.58 56.8096 53.0267 56.8096 52.32C56.8096 51.6 56.8829 51.0433 57.0296 50.65C57.1763 50.25 57.4196 49.97 57.7596 49.81C58.0996 49.65 58.5596 49.57 59.1396 49.57C59.6529 49.57 60.0629 49.6233 60.3696 49.73C60.6829 49.83 60.9096 50.0133 61.0496 50.28C61.1963 50.54 61.2696 50.91 61.2696 51.39C61.2696 51.73 61.2029 52.0033 61.0696 52.21C60.9363 52.41 60.7429 52.5533 60.4896 52.64C60.2429 52.7267 59.9496 52.77 59.6096 52.77H58.0396C58.0529 53.1033 58.0963 53.37 58.1696 53.57C58.2496 53.7633 58.3896 53.9033 58.5896 53.99C58.7963 54.0767 59.0963 54.12 59.4896 54.12H61.1096V54.85C60.8363 54.9033 60.5463 54.95 60.2396 54.99C59.9396 55.03 59.5829 55.05 59.1696 55.05ZM58.0296 52.02H59.4896C59.7229 52.02 59.8929 51.9767 59.9996 51.89C60.1129 51.7967 60.1696 51.63 60.1696 51.39C60.1696 51.1567 60.1363 50.9733 60.0696 50.84C60.0029 50.7067 59.8929 50.6133 59.7396 50.56C59.5863 50.5 59.3863 50.47 59.1396 50.47C58.8596 50.47 58.6396 50.5133 58.4796 50.6C58.3196 50.6867 58.2029 50.8433 58.1296 51.07C58.0629 51.29 58.0296 51.6067 58.0296 52.02Z" fill="#8B5CF6"/>
<path d="M126 36.4V30.6C126 30.2686 126.269 30 126.6 30H132.4C132.731 30 133 30.2686 133 30.6V36.4C133 36.7314 132.731 37 132.4 37H126.6C126.269 37 126 36.7314 126 36.4Z" stroke="#646464" stroke-width="1.5"/>
<path d="M115 36.4V30.6C115 30.2686 115.269 30 115.6 30H121.4C121.731 30 122 30.2686 122 30.6V36.4C122 36.7314 121.731 37 121.4 37H115.6C115.269 37 115 36.7314 115 36.4Z" stroke="#646464" stroke-width="1.5"/>
<path d="M126 25.4V19.6C126 19.2686 126.269 19 126.6 19H132.4C132.731 19 133 19.2686 133 19.6V25.4C133 25.7314 132.731 26 132.4 26H126.6C126.269 26 126 25.7314 126 25.4Z" stroke="#646464" stroke-width="1.5"/>
<path d="M115 25.4V19.6C115 19.2686 115.269 19 115.6 19H121.4C121.731 19 122 19.2686 122 19.6V25.4C122 25.7314 121.731 26 121.4 26H115.6C115.269 26 115 25.7314 115 25.4Z" stroke="#646464" stroke-width="1.5"/>
<path d="M108.679 55V47.62H111.679C111.953 47.62 112.209 47.6533 112.449 47.72C112.696 47.78 112.913 47.8933 113.099 48.06C113.293 48.2267 113.443 48.46 113.549 48.76C113.663 49.0533 113.719 49.4367 113.719 49.91C113.719 50.2767 113.683 50.5833 113.609 50.83C113.536 51.07 113.439 51.2667 113.319 51.42C113.199 51.5733 113.063 51.6933 112.909 51.78C112.763 51.86 112.616 51.9267 112.469 51.98L113.889 55H112.639L111.359 52.16C111.266 52.16 111.156 52.16 111.029 52.16C110.909 52.16 110.783 52.16 110.649 52.16C110.516 52.1533 110.386 52.15 110.259 52.15C110.133 52.1433 110.016 52.14 109.909 52.14V55H108.679ZM109.909 51.17H111.469C111.616 51.17 111.749 51.1533 111.869 51.12C111.989 51.08 112.096 51.0133 112.189 50.92C112.283 50.8267 112.353 50.7 112.399 50.54C112.453 50.38 112.479 50.1733 112.479 49.92C112.479 49.6733 112.453 49.4733 112.399 49.32C112.353 49.16 112.283 49.04 112.189 48.96C112.096 48.8733 111.986 48.8133 111.859 48.78C111.739 48.7467 111.609 48.73 111.469 48.73H109.909V51.17ZM116.963 55.05C116.543 55.05 116.179 55.0067 115.873 54.92C115.566 54.8333 115.316 54.6867 115.123 54.48C114.929 54.2733 114.786 53.9933 114.693 53.64C114.599 53.2867 114.553 52.8433 114.553 52.31C114.553 51.7567 114.599 51.3033 114.693 50.95C114.786 50.59 114.929 50.31 115.123 50.11C115.323 49.9033 115.576 49.7633 115.883 49.69C116.189 49.61 116.549 49.57 116.963 49.57C117.389 49.57 117.756 49.6133 118.063 49.7C118.369 49.78 118.619 49.92 118.813 50.12C119.006 50.32 119.149 50.6 119.243 50.96C119.336 51.3133 119.383 51.7633 119.383 52.31C119.383 52.85 119.336 53.3 119.243 53.66C119.156 54.0133 119.016 54.2933 118.823 54.5C118.629 54.7 118.379 54.8433 118.073 54.93C117.766 55.01 117.396 55.05 116.963 55.05ZM116.963 54.06C117.169 54.06 117.346 54.0433 117.493 54.01C117.639 53.97 117.759 53.8933 117.853 53.78C117.953 53.66 118.026 53.4833 118.073 53.25C118.119 53.01 118.143 52.6933 118.143 52.3C118.143 51.9133 118.119 51.6033 118.073 51.37C118.026 51.1367 117.953 50.9633 117.853 50.85C117.759 50.73 117.639 50.6533 117.493 50.62C117.346 50.58 117.169 50.56 116.963 50.56C116.763 50.56 116.589 50.58 116.443 50.62C116.296 50.6533 116.176 50.73 116.083 50.85C115.989 50.9633 115.916 51.1367 115.863 51.37C115.816 51.6033 115.793 51.9133 115.793 52.3C115.793 52.6933 115.816 53.01 115.863 53.25C115.916 53.4833 115.989 53.66 116.083 53.78C116.176 53.8933 116.296 53.97 116.443 54.01C116.589 54.0433 116.763 54.06 116.963 54.06ZM122.724 55.05C122.304 55.05 121.941 55.0067 121.634 54.92C121.328 54.8333 121.078 54.6867 120.884 54.48C120.691 54.2733 120.548 53.9933 120.454 53.64C120.361 53.2867 120.314 52.8433 120.314 52.31C120.314 51.7567 120.361 51.3033 120.454 50.95C120.548 50.59 120.691 50.31 120.884 50.11C121.084 49.9033 121.338 49.7633 121.644 49.69C121.951 49.61 122.311 49.57 122.724 49.57C123.151 49.57 123.518 49.6133 123.824 49.7C124.131 49.78 124.381 49.92 124.574 50.12C124.768 50.32 124.911 50.6 125.004 50.96C125.098 51.3133 125.144 51.7633 125.144 52.31C125.144 52.85 125.098 53.3 125.004 53.66C124.918 54.0133 124.778 54.2933 124.584 54.5C124.391 54.7 124.141 54.8433 123.834 54.93C123.528 55.01 123.158 55.05 122.724 55.05ZM122.724 54.06C122.931 54.06 123.108 54.0433 123.254 54.01C123.401 53.97 123.521 53.8933 123.614 53.78C123.714 53.66 123.788 53.4833 123.834 53.25C123.881 53.01 123.904 52.6933 123.904 52.3C123.904 51.9133 123.881 51.6033 123.834 51.37C123.788 51.1367 123.714 50.9633 123.614 50.85C123.521 50.73 123.401 50.6533 123.254 50.62C123.108 50.58 122.931 50.56 122.724 50.56C122.524 50.56 122.351 50.58 122.204 50.62C122.058 50.6533 121.938 50.73 121.844 50.85C121.751 50.9633 121.678 51.1367 121.624 51.37C121.578 51.6033 121.554 51.9133 121.554 52.3C121.554 52.6933 121.578 53.01 121.624 53.25C121.678 53.4833 121.751 53.66 121.844 53.78C121.938 53.8933 122.058 53.97 122.204 54.01C122.351 54.0433 122.524 54.06 122.724 54.06ZM126.246 55V49.64H127.256L127.486 50.2C127.733 50.0267 128.003 49.8767 128.296 49.75C128.596 49.6167 128.95 49.55 129.356 49.55C129.69 49.55 129.97 49.6233 130.196 49.77C130.43 49.91 130.603 50.0933 130.716 50.32C130.87 50.2 131.053 50.0833 131.266 49.97C131.486 49.85 131.72 49.75 131.966 49.67C132.213 49.59 132.456 49.55 132.696 49.55C133.11 49.55 133.44 49.6333 133.686 49.8C133.94 49.96 134.12 50.1867 134.226 50.48C134.333 50.7667 134.386 51.1 134.386 51.48V55H133.146V51.58C133.146 51.3867 133.11 51.2233 133.036 51.09C132.963 50.9567 132.86 50.8533 132.726 50.78C132.6 50.7067 132.443 50.67 132.256 50.67C132.016 50.67 131.773 50.7167 131.526 50.81C131.286 50.9033 131.066 51.0167 130.866 51.15C130.893 51.2167 130.91 51.29 130.916 51.37C130.93 51.45 130.936 51.53 130.936 51.61V55H129.696V51.58C129.696 51.3867 129.66 51.2233 129.586 51.09C129.513 50.9567 129.41 50.8533 129.276 50.78C129.15 50.7067 128.993 50.67 128.806 50.67C128.633 50.67 128.47 50.6867 128.316 50.72C128.17 50.7533 128.03 50.8033 127.896 50.87C127.763 50.9367 127.626 51.0167 127.486 51.11V55H126.246ZM137.531 55.06C137.378 55.06 137.201 55.0533 137.001 55.04C136.808 55.0333 136.611 55.02 136.411 55C136.218 54.9867 136.038 54.9667 135.871 54.94C135.705 54.9133 135.568 54.8833 135.461 54.85V54.12H137.771C137.938 54.12 138.078 54.1067 138.191 54.08C138.311 54.0533 138.401 54 138.461 53.92C138.521 53.84 138.551 53.72 138.551 53.56V53.37C138.551 53.2033 138.495 53.0733 138.381 52.98C138.275 52.88 138.085 52.83 137.811 52.83H137.001C136.688 52.83 136.408 52.7867 136.161 52.7C135.921 52.6133 135.731 52.4667 135.591 52.26C135.451 52.0533 135.381 51.7733 135.381 51.42V51.12C135.381 50.78 135.445 50.5 135.571 50.28C135.705 50.0533 135.921 49.8833 136.221 49.77C136.528 49.65 136.935 49.59 137.441 49.59C137.655 49.59 137.885 49.6 138.131 49.62C138.378 49.64 138.615 49.6667 138.841 49.7C139.068 49.7267 139.248 49.76 139.381 49.8V50.53H137.201C136.955 50.53 136.765 50.5733 136.631 50.66C136.505 50.74 136.441 50.8933 136.441 51.12V51.31C136.441 51.4567 136.471 51.5667 136.531 51.64C136.591 51.7133 136.681 51.7633 136.801 51.79C136.921 51.8167 137.065 51.83 137.231 51.83H138.061C138.588 51.83 138.978 51.95 139.231 52.19C139.485 52.43 139.611 52.77 139.611 53.21V53.65C139.611 54.01 139.528 54.2933 139.361 54.5C139.195 54.7067 138.955 54.8533 138.641 54.94C138.335 55.02 137.965 55.06 137.531 55.06Z" fill="#646464"/>
<path d="M254 20V18M254 20V22M254 20H249.5M242 26V35C242 36.1046 242.895 37 244 37H258C259.105 37 260 36.1046 260 35V26H242Z" stroke="#646464" stroke-width="1.5" stroke-linecap="round" stroke-linejoin="round"/>
<path d="M242 26V22C242 20.8954 242.895 20 244 20H246" stroke="#646464" stroke-width="1.5" stroke-linecap="round" stroke-linejoin="round"/>
<path d="M246 18V22" stroke="#646464" stroke-width="1.5" stroke-linecap="round" stroke-linejoin="round"/>
<path d="M260 26V22C260 20.8954 259.105 20 258 20H257.5" stroke="#646464" stroke-width="1.5" stroke-linecap="round" stroke-linejoin="round"/>
<path d="M232.747 55.06C232.567 55.06 232.374 55.0533 232.167 55.04C231.967 55.0333 231.76 55.02 231.547 55C231.34 54.9733 231.144 54.95 230.957 54.93C230.77 54.9033 230.604 54.8733 230.457 54.84V53.87C230.644 53.8833 230.86 53.8967 231.107 53.91C231.36 53.9233 231.624 53.9333 231.897 53.94C232.17 53.9467 232.434 53.95 232.687 53.95C232.954 53.95 233.19 53.9267 233.397 53.88C233.604 53.8267 233.764 53.7367 233.877 53.61C233.99 53.4833 234.047 53.3033 234.047 53.07V52.72C234.047 52.46 233.974 52.26 233.827 52.12C233.68 51.98 233.464 51.91 233.177 51.91H232.487C231.814 51.91 231.294 51.7633 230.927 51.47C230.567 51.1767 230.387 50.6733 230.387 49.96V49.58C230.387 48.8667 230.584 48.3533 230.977 48.04C231.377 47.72 231.947 47.56 232.687 47.56C232.94 47.56 233.2 47.5733 233.467 47.6C233.74 47.62 234 47.6467 234.247 47.68C234.494 47.7133 234.704 47.75 234.877 47.79V48.76C234.584 48.74 234.247 48.72 233.867 48.7C233.494 48.68 233.147 48.67 232.827 48.67C232.574 48.67 232.35 48.6967 232.157 48.75C231.964 48.8033 231.817 48.9 231.717 49.04C231.617 49.1733 231.567 49.3733 231.567 49.64V49.88C231.567 50.1933 231.65 50.4133 231.817 50.54C231.99 50.6667 232.237 50.73 232.557 50.73H233.327C233.76 50.73 234.117 50.81 234.397 50.97C234.677 51.13 234.884 51.35 235.017 51.63C235.157 51.9033 235.227 52.2167 235.227 52.57V53.04C235.227 53.5867 235.12 54.0067 234.907 54.3C234.694 54.5933 234.4 54.7933 234.027 54.9C233.654 55.0067 233.227 55.06 232.747 55.06ZM238.407 55.06C238.087 55.06 237.79 55.02 237.517 54.94C237.25 54.8533 237.017 54.71 236.817 54.51C236.617 54.3033 236.46 54.0233 236.347 53.67C236.24 53.3167 236.187 52.8733 236.187 52.34C236.187 51.7933 236.237 51.34 236.337 50.98C236.443 50.62 236.593 50.3367 236.787 50.13C236.98 49.9233 237.213 49.78 237.487 49.7C237.767 49.6133 238.083 49.57 238.437 49.57C238.737 49.57 239.04 49.5867 239.347 49.62C239.653 49.6467 239.96 49.7 240.267 49.78V50.49H238.807C238.487 50.49 238.227 50.54 238.027 50.64C237.827 50.74 237.677 50.9233 237.577 51.19C237.477 51.4567 237.427 51.84 237.427 52.34C237.427 52.8333 237.477 53.21 237.577 53.47C237.677 53.7233 237.827 53.8967 238.027 53.99C238.233 54.0767 238.497 54.12 238.817 54.12H240.347V54.82C240.187 54.8667 240 54.91 239.787 54.95C239.573 54.9833 239.347 55.01 239.107 55.03C238.873 55.05 238.64 55.06 238.407 55.06ZM241.259 55V47.38H242.499V50.2C242.712 50.04 242.979 49.8933 243.299 49.76C243.626 49.62 243.959 49.55 244.299 49.55C244.692 49.55 245.009 49.63 245.249 49.79C245.496 49.95 245.672 50.1733 245.779 50.46C245.892 50.74 245.949 51.06 245.949 51.42V55H244.709V51.57C244.709 51.3833 244.672 51.2233 244.599 51.09C244.526 50.95 244.422 50.8467 244.289 50.78C244.156 50.7067 243.999 50.67 243.819 50.67C243.646 50.67 243.486 50.69 243.339 50.73C243.192 50.7633 243.049 50.8133 242.909 50.88C242.776 50.9467 242.639 51.0233 242.499 51.11V55H241.259ZM249.377 55.05C248.797 55.05 248.333 54.97 247.987 54.81C247.647 54.65 247.4 54.3733 247.247 53.98C247.093 53.58 247.017 53.0267 247.017 52.32C247.017 51.6 247.09 51.0433 247.237 50.65C247.383 50.25 247.627 49.97 247.967 49.81C248.307 49.65 248.767 49.57 249.347 49.57C249.86 49.57 250.27 49.6233 250.577 49.73C250.89 49.83 251.117 50.0133 251.257 50.28C251.403 50.54 251.477 50.91 251.477 51.39C251.477 51.73 251.41 52.0033 251.277 52.21C251.143 52.41 250.95 52.5533 250.697 52.64C250.45 52.7267 250.157 52.77 249.817 52.77H248.247C248.26 53.1033 248.303 53.37 248.377 53.57C248.457 53.7633 248.597 53.9033 248.797 53.99C249.003 54.0767 249.303 54.12 249.697 54.12H251.317V54.85C251.043 54.9033 250.753 54.95 250.447 54.99C250.147 55.03 249.79 55.05 249.377 55.05ZM248.237 52.02H249.697C249.93 52.02 250.1 51.9767 250.207 51.89C250.32 51.7967 250.377 51.63 250.377 51.39C250.377 51.1567 250.343 50.9733 250.277 50.84C250.21 50.7067 250.1 50.6133 249.947 50.56C249.793 50.5 249.593 50.47 249.347 50.47C249.067 50.47 248.847 50.5133 248.687 50.6C248.527 50.6867 248.41 50.8433 248.337 51.07C248.27 51.29 248.237 51.6067 248.237 52.02ZM254.327 55.06C253.907 55.06 253.554 54.97 253.267 54.79C252.981 54.6033 252.764 54.3133 252.617 53.92C252.477 53.52 252.407 53.0033 252.407 52.37C252.407 51.7033 252.471 51.1667 252.597 50.76C252.724 50.3467 252.934 50.0467 253.227 49.86C253.527 49.6667 253.927 49.57 254.427 49.57C254.694 49.57 254.957 49.5967 255.217 49.65C255.477 49.7033 255.704 49.7667 255.897 49.84V47.37H257.137V55H256.107L255.897 54.48C255.791 54.58 255.647 54.6733 255.467 54.76C255.294 54.8467 255.107 54.92 254.907 54.98C254.714 55.0333 254.521 55.06 254.327 55.06ZM254.747 54.06C254.987 54.06 255.204 54.0233 255.397 53.95C255.591 53.87 255.757 53.79 255.897 53.71V50.73C255.731 50.67 255.561 50.6167 255.387 50.57C255.214 50.5233 255.024 50.5 254.817 50.5C254.537 50.5 254.311 50.5533 254.137 50.66C253.964 50.76 253.837 50.94 253.757 51.2C253.684 51.46 253.647 51.83 253.647 52.31C253.647 52.7567 253.684 53.11 253.757 53.37C253.831 53.6233 253.947 53.8033 254.107 53.91C254.274 54.01 254.487 54.06 254.747 54.06ZM259.928 55.06C259.435 55.06 259.051 54.9233 258.778 54.65C258.505 54.37 258.368 53.9633 258.368 53.43V49.64H259.608V53.07C259.608 53.4233 259.688 53.66 259.848 53.78C260.015 53.9 260.238 53.96 260.518 53.96C260.751 53.96 260.978 53.9233 261.198 53.85C261.418 53.7767 261.625 53.67 261.818 53.53V49.64H263.058V55H262.048L261.818 54.44C261.565 54.6 261.275 54.7433 260.948 54.87C260.628 54.9967 260.288 55.06 259.928 55.06ZM265.896 55.02C265.542 55.02 265.246 54.96 265.006 54.84C264.772 54.72 264.596 54.5333 264.476 54.28C264.362 54.0267 264.306 53.69 264.306 53.27V47.37H265.546V53.1C265.546 53.34 265.569 53.5267 265.616 53.66C265.669 53.7933 265.742 53.89 265.836 53.95C265.929 54.0033 266.042 54.04 266.176 54.06L266.626 54.12V55.02H265.896ZM269.552 55.05C268.972 55.05 268.509 54.97 268.162 54.81C267.822 54.65 267.576 54.3733 267.422 53.98C267.269 53.58 267.192 53.0267 267.192 52.32C267.192 51.6 267.266 51.0433 267.412 50.65C267.559 50.25 267.802 49.97 268.142 49.81C268.482 49.65 268.942 49.57 269.522 49.57C270.036 49.57 270.446 49.6233 270.752 49.73C271.066 49.83 271.292 50.0133 271.432 50.28C271.579 50.54 271.652 50.91 271.652 51.39C271.652 51.73 271.586 52.0033 271.452 52.21C271.319 52.41 271.126 52.5533 270.872 52.64C270.626 52.7267 270.332 52.77 269.992 52.77H268.422C268.436 53.1033 268.479 53.37 268.552 53.57C268.632 53.7633 268.772 53.9033 268.972 53.99C269.179 54.0767 269.479 54.12 269.872 54.12H271.492V54.85C271.219 54.9033 270.929 54.95 270.622 54.99C270.322 55.03 269.966 55.05 269.552 55.05ZM268.412 52.02H269.872C270.106 52.02 270.276 51.9767 270.382 51.89C270.496 51.7967 270.552 51.63 270.552 51.39C270.552 51.1567 270.519 50.9733 270.452 50.84C270.386 50.7067 270.276 50.6133 270.122 50.56C269.969 50.5 269.769 50.47 269.522 50.47C269.242 50.47 269.022 50.5133 268.862 50.6C268.702 50.6867 268.586 50.8433 268.512 51.07C268.446 51.29 268.412 51.6067 268.412 52.02Z" fill="#646464"/>
<path d="M327 22L327 28L333 28" stroke="#646464" stroke-width="1.5" stroke-linecap="round" stroke-linejoin="round"/>
<path d="M327 38C332.523 38 337 33.5228 337 28C337 22.4772 332.523 18 327 18C321.477 18 317 22.4772 317 28C317 33.5228 321.477 38 327 38Z" stroke="#646464" stroke-width="1.5" stroke-linecap="round" stroke-linejoin="round"/>
<path d="M310.766 55V47.62H311.996V50.81H315.106V47.62H316.346V55H315.106V51.92H311.996V55H310.766ZM317.829 48.79C317.702 48.79 317.639 48.73 317.639 48.61V47.7C317.639 47.5667 317.702 47.5 317.829 47.5H318.769C318.829 47.5 318.872 47.52 318.899 47.56C318.932 47.6 318.949 47.6467 318.949 47.7V48.61C318.949 48.73 318.889 48.79 318.769 48.79H317.829ZM317.669 55V49.64H318.909V55H317.669ZM322.099 55.06C321.945 55.06 321.769 55.0533 321.569 55.04C321.375 55.0333 321.179 55.02 320.979 55C320.785 54.9867 320.605 54.9667 320.439 54.94C320.272 54.9133 320.135 54.8833 320.029 54.85V54.12H322.339C322.505 54.12 322.645 54.1067 322.759 54.08C322.879 54.0533 322.969 54 323.029 53.92C323.089 53.84 323.119 53.72 323.119 53.56V53.37C323.119 53.2033 323.062 53.0733 322.949 52.98C322.842 52.88 322.652 52.83 322.379 52.83H321.569C321.255 52.83 320.975 52.7867 320.729 52.7C320.489 52.6133 320.299 52.4667 320.159 52.26C320.019 52.0533 319.949 51.7733 319.949 51.42V51.12C319.949 50.78 320.012 50.5 320.139 50.28C320.272 50.0533 320.489 49.8833 320.789 49.77C321.095 49.65 321.502 49.59 322.009 49.59C322.222 49.59 322.452 49.6 322.699 49.62C322.945 49.64 323.182 49.6667 323.409 49.7C323.635 49.7267 323.815 49.76 323.949 49.8V50.53H321.769C321.522 50.53 321.332 50.5733 321.199 50.66C321.072 50.74 321.009 50.8933 321.009 51.12V51.31C321.009 51.4567 321.039 51.5667 321.099 51.64C321.159 51.7133 321.249 51.7633 321.369 51.79C321.489 51.8167 321.632 51.83 321.799 51.83H322.629C323.155 51.83 323.545 51.95 323.799 52.19C324.052 52.43 324.179 52.77 324.179 53.21V53.65C324.179 54.01 324.095 54.2933 323.929 54.5C323.762 54.7067 323.522 54.8533 323.209 54.94C322.902 55.02 322.532 55.06 322.099 55.06ZM327.158 55C326.771 55 326.455 54.9433 326.208 54.83C325.961 54.71 325.781 54.5133 325.668 54.24C325.561 53.9667 325.511 53.6067 325.518 53.16L325.558 50.64H324.718V49.84L325.598 49.64L325.778 48.14H326.748V49.64H328.108V50.64H326.748V53.15C326.748 53.3233 326.765 53.4667 326.798 53.58C326.831 53.6867 326.878 53.7733 326.938 53.84C327.005 53.9 327.075 53.9433 327.148 53.97C327.221 53.9967 327.298 54.0133 327.378 54.02L328.048 54.09V55H327.158ZM331.257 55.05C330.837 55.05 330.473 55.0067 330.167 54.92C329.86 54.8333 329.61 54.6867 329.417 54.48C329.223 54.2733 329.08 53.9933 328.987 53.64C328.893 53.2867 328.847 52.8433 328.847 52.31C328.847 51.7567 328.893 51.3033 328.987 50.95C329.08 50.59 329.223 50.31 329.417 50.11C329.617 49.9033 329.87 49.7633 330.177 49.69C330.483 49.61 330.843 49.57 331.257 49.57C331.683 49.57 332.05 49.6133 332.357 49.7C332.663 49.78 332.913 49.92 333.107 50.12C333.3 50.32 333.443 50.6 333.537 50.96C333.63 51.3133 333.677 51.7633 333.677 52.31C333.677 52.85 333.63 53.3 333.537 53.66C333.45 54.0133 333.31 54.2933 333.117 54.5C332.923 54.7 332.673 54.8433 332.367 54.93C332.06 55.01 331.69 55.05 331.257 55.05ZM331.257 54.06C331.463 54.06 331.64 54.0433 331.787 54.01C331.933 53.97 332.053 53.8933 332.147 53.78C332.247 53.66 332.32 53.4833 332.367 53.25C332.413 53.01 332.437 52.6933 332.437 52.3C332.437 51.9133 332.413 51.6033 332.367 51.37C332.32 51.1367 332.247 50.9633 332.147 50.85C332.053 50.73 331.933 50.6533 331.787 50.62C331.64 50.58 331.463 50.56 331.257 50.56C331.057 50.56 330.883 50.58 330.737 50.62C330.59 50.6533 330.47 50.73 330.377 50.85C330.283 50.9633 330.21 51.1367 330.157 51.37C330.11 51.6033 330.087 51.9133 330.087 52.3C330.087 52.6933 330.11 53.01 330.157 53.25C330.21 53.4833 330.283 53.66 330.377 53.78C330.47 53.8933 330.59 53.97 330.737 54.01C330.883 54.0433 331.057 54.06 331.257 54.06ZM334.778 55V49.64H335.738L336.018 50.5C336.232 50.24 336.468 50.02 336.728 49.84C336.988 49.66 337.298 49.57 337.658 49.57C337.732 49.57 337.808 49.5767 337.888 49.59C337.968 49.5967 338.042 49.61 338.108 49.63V50.89C338.015 50.8767 337.915 50.8667 337.808 50.86C337.702 50.8533 337.598 50.85 337.498 50.85C337.292 50.85 337.102 50.8733 336.928 50.92C336.762 50.9667 336.605 51.04 336.458 51.14C336.312 51.2333 336.165 51.3533 336.018 51.5V55H334.778ZM340.568 57.37L341.188 55C340.928 55 340.691 54.95 340.478 54.85C340.271 54.75 340.095 54.6 339.948 54.4C339.801 54.2 339.681 53.9433 339.588 53.63L338.488 49.64H339.768L340.738 53.38C340.785 53.5333 340.841 53.65 340.908 53.73C340.975 53.81 341.041 53.87 341.108 53.91C341.175 53.9433 341.235 53.9633 341.288 53.97C341.348 53.9767 341.388 53.98 341.408 53.98L342.518 49.64H343.778L342.058 56.38L341.578 57.37H340.568Z" fill="#646464"/>
<rect x="120" y="85" width="134" height="5" rx="2.5" fill="white" fill-opacity="0.4"/>
</svg>
