<svg width="21" height="20" viewBox="0 0 21 20" fill="none" xmlns="http://www.w3.org/2000/svg">
<path d="M20.3169 10.2217C20.3287 9.534 20.2575 8.84627 20.107 8.17831H10.6993V11.8897H16.2228C16.0129 13.2058 15.2725 14.3758 14.1757 15.1346L14.1559 15.2572L17.1295 17.5575L17.3354 17.5772C19.224 15.8342 20.3169 13.2691 20.3169 10.2217Z" fill="#4285F4"/>
<path d="M10.6993 19.9999C13.4037 19.9999 15.6764 19.1106 17.3354 17.577L14.1758 15.1305C13.1503 15.8182 11.9347 16.166 10.7033 16.1304C8.10588 16.1146 5.80938 14.4388 5.00165 11.9725L4.88286 11.9843L1.79051 14.3716L1.75092 14.4823C3.44557 17.8695 6.91012 20.0039 10.6993 19.9999Z" fill="#34A853"/>
<path d="M4.9976 11.9764C4.77983 11.34 4.665 10.6721 4.665 9.9962C4.66896 9.32428 4.77983 8.65631 4.98968 8.01601L4.98572 7.88558L1.85377 5.45878L1.75082 5.50621C0.325409 8.33221 0.325409 11.6602 1.75082 14.4862L4.9976 11.9764Z" fill="#FBBC05"/>
<path d="M10.6993 3.8661C12.1366 3.84239 13.5224 4.37597 14.5717 5.35618L17.3988 2.60132C15.5853 0.90176 13.1819 -0.0270664 10.6954 0.000600781C6.90615 0.000600781 3.4416 2.13097 1.74298 5.51428L4.98184 8.02408C5.79749 5.55775 8.09795 3.88191 10.6993 3.8661Z" fill="#EB4335"/>
</svg>
