<svg width="512" height="512" viewBox="0 0 512 512" fill="none" xmlns="http://www.w3.org/2000/svg">
<path fill-rule="evenodd" clip-rule="evenodd" d="M31.9157 140.611C16.2227 145.445 4.07049 158.957 1.03868 174.944C-0.346228 182.243 -0.346228 329.853 1.03868 337.152C4.11049 353.353 16.3357 366.792 32.3177 371.538C36.7534 372.855 64.3967 373.04 256.002 373.04C447.607 373.04 475.25 372.855 479.686 371.538C495.668 366.792 507.893 353.353 510.965 337.152C512.335 329.924 512.349 182.277 510.981 174.939C507.97 158.806 495.66 145.503 479.087 140.473C472.151 138.367 38.7643 138.502 31.9157 140.611ZM477.632 162.275C479.361 163.221 482.237 165.458 484.024 167.244C490.746 173.966 490.457 170.708 490.771 243.299L491.055 309.045H256.036H21.0164V246.097C21.0164 205.605 21.3934 181.392 22.0744 178.218C23.7383 170.458 29.2969 164.155 36.8674 161.44C39.8362 160.376 80.9077 160.172 257.502 160.343C460.634 160.541 474.689 160.664 477.632 162.275ZM387.265 206.579C384.077 209.768 383.791 210.503 384.291 214.231C384.635 216.802 385.821 219.333 387.44 220.953L390.035 223.55L418.762 223.863C437.175 224.064 448.796 223.792 451.129 223.106C458.695 220.881 460.761 211.443 454.883 205.952L451.777 203.051H421.285H390.793L387.265 206.579ZM96.0117 341.542V352.042H68.7564C53.7664 352.042 39.9762 351.604 38.1103 351.069C30.7128 348.948 23.4223 341.316 22.3233 334.547L21.7544 331.043H58.883H96.0117V341.542ZM181.006 341.542V352.042H149.008H117.01V341.542V331.043H149.008H181.006V341.542ZM298.999 341.542V352.042H251.002H203.005V341.542V331.043H251.002H298.999V341.542ZM394.993 341.542V352.042H357.495H319.998V341.542V331.043H357.495H394.993V341.542ZM489.987 333.083C489.987 339.001 481.164 349.066 474.309 350.97C472.048 351.598 459.364 352.033 443.24 352.036L415.992 352.042V341.542V331.043H452.989C489.561 331.043 489.987 331.066 489.987 333.083Z" fill="black"/>
</svg>
