<svg width="512" height="512" viewBox="0 0 512 512" fill="none" xmlns="http://www.w3.org/2000/svg">
<path fill-rule="evenodd" clip-rule="evenodd" d="M234.958 1.32362C188.349 6.54662 147.256 25.7116 114.093 57.6926C71.703 98.5706 49.089 154.227 51.305 212.224C51.983 229.992 53.732 241.891 58.062 258.208C70.85 306.397 101.437 348.719 143.708 376.716L150.958 381.517L150.97 397.121C150.982 413.692 151.924 419.346 156.091 427.888C159.307 434.478 169.194 444.144 176.136 447.483C181.596 450.11 181.875 450.436 183.42 455.969C187.239 469.647 193.026 479.462 203.373 489.809C212.752 499.188 220.75 504.162 233.409 508.491C241.556 511.277 243.704 511.592 254.958 511.655C268.152 511.728 273.946 510.714 284.241 506.531C293.619 502.72 302.184 496.771 309.733 488.824C318.359 479.743 323.271 471.503 327.265 459.413L330.341 450.101L335.9 447.484C342.98 444.151 352.672 434.434 356.106 427.224C359.966 419.122 360.958 412.801 360.958 396.321V381.517L368.208 376.716C384.795 365.73 403.253 349.052 415.235 334.224C449.572 291.733 465.788 236.103 459.523 182.293C449.636 97.3676 389.104 27.8876 306.575 6.73562C284.268 1.01862 256.444 -1.08438 234.958 1.32362ZM274.458 31.2686C295.735 33.7016 313.509 38.8796 332.458 48.1666C366.712 64.9536 393.182 90.6586 410.916 124.357C440.596 180.754 436.809 249.717 401.119 302.771C388.585 321.403 371.52 338.416 352.99 350.752L343.268 357.224H307.113H270.958V318V278.776L295.382 254.25C316.579 232.964 319.899 229.216 320.511 225.878C322.521 214.923 313.103 205.823 302.282 208.264C299.286 208.939 294.664 213.032 277.282 230.4L255.958 251.707L234.634 230.4C217.252 213.032 212.63 208.939 209.634 208.264C198.813 205.823 189.395 214.923 191.405 225.878C192.017 229.216 195.337 232.964 216.534 254.25L240.958 278.776V318V357.224H205.185H169.412L163.064 353.474C146.697 343.806 126.302 324.585 113.352 306.623C105.723 296.042 94.164 273.296 90.027 260.724C70.656 201.854 83.025 138.847 123.277 91.3606C159.813 48.2586 218.617 24.8846 274.458 31.2686ZM330.958 398.838C330.958 409.017 330.681 410.945 328.716 414.441C327.4 416.782 324.938 419.214 322.756 420.327C319.221 422.13 315.919 422.224 255.884 422.224H192.73L188.741 419.982C182.418 416.428 180.958 412.447 180.958 398.764V387.224H255.958H330.958V398.838ZM297.418 454.474C296.171 458.635 290.783 466.196 286.015 470.476C268.745 485.978 243.171 485.978 225.901 470.476C221.133 466.196 215.745 458.635 214.498 454.474L213.823 452.224H255.958H298.093L297.418 454.474Z" fill="black"/>
</svg>
