<svg width="512" height="512" viewBox="0 0 512 512" fill="none" xmlns="http://www.w3.org/2000/svg">
<g clip-path="url(#clip0_1208_744)">
<path fill-rule="evenodd" clip-rule="evenodd" d="M113.761 2.00404C111.476 3.21104 109.24 5.51104 108.011 7.92004C106.027 11.81 106 13.5981 106 141.8V271.737L99.3258 272.899C54.1078 280.773 15.4248 316.338 4.08084 360.464C1.03584 372.307 0.0418403 380.944 0.0198403 395.732C-0.00315975 411.33 1.24584 415.026 7.78284 418.7L11.7718 420.942H120.426C227.348 420.942 229.143 420.91 233.026 418.929C235.649 417.591 237.692 415.506 239.116 412.715C241.139 408.75 241.227 407.537 240.694 390.979C240.302 378.808 239.526 370.841 238.157 364.942C232.89 342.246 222.136 322.9 205.589 306.353C188.436 289.2 167.657 277.955 144.683 273.393L136 271.668V141.765C136 13.5461 135.974 11.811 133.987 7.91604C130.297 0.683041 121.264 -1.95696 113.761 2.00404ZM383.761 2.00404C381.476 3.21104 379.24 5.51104 378.011 7.92004C376.053 11.758 376 13.708 376 81.765V151.668L367.255 153.405C326.939 161.412 293.174 190.449 278.274 229.929C273.62 242.259 271.905 252.364 271.306 270.979C270.773 287.537 270.861 288.75 272.884 292.715C274.308 295.506 276.351 297.591 278.974 298.929C282.857 300.91 284.652 300.942 391.5 300.942C498.348 300.942 500.143 300.91 504.026 298.929C510.606 295.572 512.004 291.497 511.98 275.732C511.95 255.19 509.128 239.975 502.486 224.535C486.697 187.831 453.762 161.154 414.65 153.386L406 151.668V81.765C406 13.68 405.948 11.76 403.987 7.91604C400.297 0.683041 391.264 -1.95696 383.761 2.00404ZM408.5 182.832C439.605 189.273 464.831 210.352 476.069 239.294C478.954 246.725 482 261.247 482 267.573V270.942H391.362H300.724L301.404 263.437C306.26 209.851 356.474 172.058 408.5 182.832ZM143.5 303.887C180.305 313.489 207.14 345.305 210.596 383.437L211.276 390.942H120.638H29.9998V387.573C29.9998 381.247 33.0458 366.725 35.9308 359.294C44.7838 336.495 64.6878 316.304 86.8028 307.688C104.933 300.624 125.667 299.234 143.5 303.887ZM308.5 333.208C304.884 335.228 303.612 337.196 295.25 353.709C288.79 366.465 286 373.038 286 375.499C286 380.87 289.399 386.594 293.974 388.929C299.077 391.532 303.523 391.455 308.5 388.676C312.116 386.656 313.388 384.688 321.75 368.175C331.936 348.059 332.592 345.277 328.734 338.546C324.538 331.227 316.055 328.99 308.5 333.208ZM383.761 333.004C376.977 336.586 376 340.102 376 360.942C376 381.814 376.836 384.795 383.783 388.7C388.721 391.475 392.903 391.542 398.026 388.929C405.041 385.35 406 381.983 406 360.942C406 344.795 405.785 342.44 403.987 338.916C400.297 331.683 391.264 329.043 383.761 333.004ZM458.984 332.796C457.068 333.816 454.495 336.403 453.266 338.546C449.408 345.277 450.064 348.059 460.25 368.175C468.612 384.688 469.884 386.656 473.5 388.676C478.477 391.455 482.923 391.532 488.026 388.929C492.601 386.594 496 380.87 496 375.499C496 373.038 493.21 366.465 486.75 353.709C478.388 337.196 477.116 335.228 473.5 333.208C468.611 330.479 463.607 330.337 458.984 332.796ZM38.5788 453.208C35.0628 455.211 33.7268 457.307 25.6838 473.442C15.4418 493.987 14.4728 497.989 18.2078 504.338C22.5168 511.663 30.9998 513.903 38.4208 509.676C41.9368 507.673 43.2728 505.577 51.3158 489.442C61.5578 468.897 62.5268 464.895 58.7918 458.546C54.4828 451.221 45.9998 448.981 38.5788 453.208ZM113.761 453.004C106.94 456.606 106 460.049 106 481.442C106 502.867 106.801 505.776 113.783 509.7C118.721 512.475 122.903 512.542 128.026 509.929C135.078 506.331 136 503.036 136 481.442C136 464.794 135.791 462.452 133.987 458.916C130.297 451.683 121.264 449.043 113.761 453.004ZM188.984 452.796C187.068 453.816 184.469 456.403 183.208 458.546C179.473 464.895 180.442 468.897 190.684 489.442C198.727 505.577 200.063 507.673 203.579 509.676C211 513.903 219.483 511.663 223.792 504.338C227.527 497.989 226.558 493.987 216.316 473.442C208.273 457.307 206.937 455.211 203.421 453.208C198.629 450.479 193.609 450.335 188.984 452.796Z" fill="black"/>
</g>
<defs>
<clipPath id="clip0_1208_744">
<rect width="512" height="512" fill="white"/>
</clipPath>
</defs>
</svg>
