<svg width="512" height="512" viewBox="0 0 512 512" fill="none" xmlns="http://www.w3.org/2000/svg">
<g clip-path="url(#clip0_1208_751)">
<path fill-rule="evenodd" clip-rule="evenodd" d="M244.32 0.923376C221.158 5.08738 200.348 20.6224 190.12 41.3844C183.744 54.3254 182.57 60.0634 182.65 77.8844C182.801 111.749 196.086 189.36 209.411 234.227L212.922 246.05L209.332 250.717C207.358 253.284 204.277 258.534 202.485 262.384L199.228 269.384L190.895 271.226C178.591 273.945 159.872 279.309 139.667 285.906L121.771 291.75L122.339 280.567C123.944 248.934 135.637 220.601 157.08 196.384C164.026 188.54 165.062 186.506 165.062 180.723C165.062 170.049 153.055 163.216 143.228 168.298C135.787 172.146 116.725 197.883 108.578 215.083C97.5247 238.415 92.7107 259.82 92.6197 286.044L92.5617 302.704L78.7037 308.352C71.0817 311.459 64.6297 313.786 64.3667 313.522C63.3137 312.47 62.1257 298.711 62.0947 287.226C61.9287 225.68 91.5757 166.913 141.457 129.911C149.29 124.1 151.692 121.714 153.247 118.199C157.625 108.301 150.45 97.8844 139.255 97.8844C134.275 97.8844 124.827 104.027 109.231 117.406C86.7287 136.709 68.5807 160.484 55.0497 188.384C44.3857 210.373 38.3017 229.788 34.3667 254.392C32.0907 268.615 32.0257 304.882 34.2517 318.677L35.7497 327.97L32.6557 330.078C27.9607 333.278 17.2567 343.865 14.0057 348.524C9.42373 355.09 4.45573 365.784 2.45473 373.384C-0.33427 383.978 -0.11127 402.05 2.92873 411.884C6.66173 423.957 12.5257 434.149 20.8037 442.948C29.8587 452.574 39.3717 458.678 52.0617 463.005C60.7047 465.953 62.6897 466.251 74.0617 466.315C88.2247 466.393 94.0127 465.255 105.03 460.223C114.504 455.896 119.369 452.805 136.062 440.505C168.278 416.767 201.807 387.892 229.321 360.192L243.08 346.34L256.821 346.384L270.562 346.428L290.127 365.906C300.887 376.619 313.57 388.737 318.311 392.835C323.052 396.934 326.731 400.61 326.488 401.004C325.576 402.479 313.246 408.764 304.287 412.322C288.18 418.718 275.054 421.185 256.562 421.292C243.556 421.367 238.18 420.933 227.834 418.972C215.297 416.596 215.046 416.588 211.025 418.4C205.934 420.696 202.938 424.8 202.315 430.334C201.733 435.491 204.086 441.053 208.04 443.868C211.306 446.194 225.917 449.486 239.062 450.858C275.508 454.662 315.224 444.938 345.376 424.829L351.189 420.951L363.158 430.46C369.741 435.69 374.885 440.362 374.589 440.841C374.292 441.32 368.875 445.158 362.551 449.37C307.391 486.103 235.02 491.904 174.722 464.425C165.729 460.327 160.209 459.887 155.303 462.879C150.107 466.047 147.882 470.453 148.341 476.666C148.895 484.157 152.412 487.471 165.911 493.218C221.9 517.058 281.462 517.948 338.392 495.797C356.375 488.8 379.865 475.191 394.907 463.055L401.251 457.936L404.907 459.52C418.635 465.467 428.785 467.401 441.791 466.547C473.217 464.482 499.448 443.216 509.214 411.884C511.177 405.584 511.543 402.304 511.498 391.384C511.448 379.408 511.188 377.636 508.194 368.884C504.11 356.946 498.039 347.129 489.65 338.894C479.416 328.848 470.093 323.59 439.466 310.589C401.816 294.608 346.83 276.138 321.255 270.882L314.948 269.586L311.565 262.458C309.704 258.537 306.56 253.204 304.577 250.608L300.973 245.888L304.484 234.136C308.669 220.128 313.867 198.56 317.622 179.624L320.351 165.863L324.956 168.514C352.506 184.374 374.608 211.82 385.133 243.244C388.814 254.235 391.878 258.219 397.896 259.839C405.619 261.919 413.854 257.085 415.969 249.229C417.258 244.444 415.361 236.682 409.243 221.703C395.488 188.027 367.421 157.225 333.812 138.924C329.11 136.363 326.062 134.071 326.062 133.096C326.062 129.604 329.411 105.34 329.986 104.666C330.866 103.633 354.174 115.519 363.583 121.799C393.802 141.968 415.938 167.205 431.953 199.744C441.797 219.747 447.619 239.715 450.623 263.777C451.476 270.611 452.763 276.399 453.839 278.242C459.318 287.623 473.818 287.381 479.45 277.815C483.799 270.427 478.367 236.347 468.384 208.384C447.629 150.252 401.601 101.758 344.365 77.7224L332.14 72.5894L331.547 67.9864C330.257 57.9794 327.528 48.9774 323.177 40.3844C319.499 33.1194 316.88 29.6414 309.591 22.3444C299.711 12.4524 290.681 6.97638 277.562 2.91938C269.53 0.436376 252.663 -0.576624 244.32 0.923376ZM265.171 30.9054C283.511 34.3834 298.146 49.4654 301.174 68.0084C304.027 85.4874 291.055 169.393 278.099 217.253C276.481 223.231 274.908 228.371 274.604 228.675C274.3 228.979 271.19 228.7 267.691 228.056C259.534 226.553 253.113 226.601 245.375 228.222L239.189 229.519L236.145 218.451C228.6 191.016 221.752 155.994 216.552 118.252C212.035 85.4634 211.328 73.5584 213.381 64.8844C218.899 41.5764 241.893 26.4904 265.171 30.9054ZM265.274 258.247C275.772 261.407 283.716 270.112 286.112 281.082C288.587 292.413 283.722 304.211 273.611 311.4C258.038 322.472 235.888 315.398 229.07 297.176C220.544 274.389 242.055 251.26 265.274 258.247ZM200.477 306.505C202.595 313.037 208.151 322.317 212.832 327.139L216.477 330.894L211.52 335.995C180.766 367.636 114.993 421.783 95.0617 431.866C87.7307 435.575 79.0977 437.266 71.4827 436.486C37.4467 432.999 19.4577 396.752 37.3157 367.639C44.1457 356.507 54.2567 350.626 94.6557 334.294C130.132 319.951 195.969 298.639 198.189 300.78C198.534 301.112 199.563 303.689 200.477 306.505ZM366.305 315.229C409.383 329.627 454.796 348.78 464.68 356.718C485.1 373.117 487.582 401.729 470.333 421.881C457.815 436.505 434.803 440.822 417.062 431.874C398.919 422.724 341.966 375.615 309.597 342.985L297.632 330.923L300.702 327.653C305.441 322.607 309.508 316.03 312.413 308.713C313.87 305.045 315.062 301.595 315.062 301.047C315.062 299.468 338.841 306.049 366.305 315.229Z" fill="black"/>
</g>
<defs>
<clipPath id="clip0_1208_751">
<rect width="512" height="512" fill="white"/>
</clipPath>
</defs>
</svg>
