<?xml version="1.0" standalone="no"?>
<!DOCTYPE svg PUBLIC "-//W3C//DTD SVG 20010904//EN"
 "http://www.w3.org/TR/2001/REC-SVG-20010904/DTD/svg10.dtd">
<svg version="1.0" xmlns="http://www.w3.org/2000/svg"
 width="24.000000pt" height="24.000000pt" viewBox="0 0 24.000000 24.000000"
 preserveAspectRatio="xMidYMid meet">

<g transform="translate(0.000000,24.000000) scale(0.100000,-0.100000)"
fill="#000000" stroke="none">
<path d="M85 230 c-25 -11 1 -11 35 0 20 6 21 8 5 8 -11 0 -29 -3 -40 -8z"/>
<path d="M103 203 c9 -2 25 -2 35 0 9 3 1 5 -18 5 -19 0 -27 -2 -17 -5z"/>
<path d="M76 164 c-9 -8 -16 -21 -16 -27 0 -7 5 -4 11 5 5 10 17 22 27 27 9 6
12 11 5 11 -6 0 -19 -7 -27 -16z"/>
<path d="M142 169 c10 -5 22 -17 27 -27 6 -9 11 -12 11 -5 0 15 -28 43 -43 43
-7 0 -4 -5 5 -11z"/>
<path d="M60 107 c0 -28 23 -47 58 -47 40 0 62 14 62 39 0 11 -5 9 -16 -7 -20
-30 -68 -30 -88 0 -9 12 -16 19 -16 15z"/>
<path d="M90 38 c0 -5 14 -8 30 -8 17 0 30 3 30 8 0 4 -13 7 -30 7 -16 0 -30
-3 -30 -7z"/>
<path d="M97 8 c6 -10 40 -10 46 -1 3 5 -8 8 -23 8 -15 0 -26 -3 -23 -7z"/>
</g>
</svg>
