<svg width="512" height="512" viewBox="0 0 512 512" fill="none" xmlns="http://www.w3.org/2000/svg">
<path fill-rule="evenodd" clip-rule="evenodd" d="M149.274 18.093C146.866 19.285 144.071 21.758 142.774 23.842C140.576 27.379 140.489 28.419 140.168 55.162L139.837 82.823L134.668 84.496C123.435 88.131 113.86 94.143 104.406 103.5C93.802 113.994 88.311 122.631 84.311 135.107L81.5 143.874L53.821 144.187C27.689 144.482 25.988 144.615 23.383 146.562C18.136 150.482 16.5 153.677 16.5 160C16.5 166.323 18.136 169.518 23.383 173.438C25.984 175.382 27.682 175.517 53.071 175.796L80 176.092V208V239.908L53.071 240.204C27.682 240.483 25.984 240.618 23.383 242.562C18.136 246.482 16.5 249.677 16.5 256C16.5 262.323 18.136 265.518 23.383 269.438C25.984 271.382 27.682 271.517 53.071 271.796L80 272.092V304V335.908L53.071 336.204C27.682 336.483 25.984 336.618 23.383 338.562C18.136 342.482 16.5 345.677 16.5 352C16.5 358.323 18.136 361.518 23.383 365.438C25.988 367.385 27.689 367.518 53.821 367.813L81.5 368.126L84.311 376.893C88.311 389.369 93.802 398.006 104.406 408.5C113.86 417.857 123.435 423.869 134.668 427.504L139.837 429.177L140.168 456.838C140.49 483.63 140.572 484.616 142.788 488.179C145.31 492.235 151.91 496 156.5 496C160.436 496 167.083 492.541 169.5 489.235C171.365 486.685 171.52 484.661 171.795 459.25L172.09 432H205.999H239.908L240.204 458.929C240.483 484.318 240.618 486.016 242.562 488.617C246.482 493.864 249.677 495.5 256 495.5C262.323 495.5 265.518 493.864 269.438 488.617C271.382 486.016 271.517 484.318 271.796 458.929L272.092 432H301.96H331.828L332.164 458.25C332.488 483.564 332.582 484.631 334.788 488.179C337.31 492.235 343.91 496 348.5 496C352.436 496 359.083 492.541 361.5 489.235C363.368 486.681 363.52 484.662 363.795 458.758L364.089 431.016L366.795 430.424C383.372 426.795 395.922 420.051 407.594 408.5C418.198 398.006 423.689 389.369 427.689 376.893L430.5 368.126L458.179 367.813C484.311 367.518 486.012 367.385 488.617 365.438C493.864 361.518 495.5 358.323 495.5 352C495.5 345.677 493.864 342.482 488.617 338.562C486.016 336.618 484.318 336.483 458.929 336.204L432 335.908V304V272.092L458.929 271.796C484.318 271.517 486.016 271.382 488.617 269.438C493.864 265.518 495.5 262.323 495.5 256C495.5 249.677 493.864 246.482 488.617 242.562C486.016 240.618 484.318 240.483 458.929 240.204L432 239.908V208V176.092L458.929 175.796C484.318 175.517 486.016 175.382 488.617 173.438C493.864 169.518 495.5 166.323 495.5 160C495.5 153.677 493.864 150.482 488.617 146.562C486.012 144.615 484.311 144.482 458.179 144.187L430.5 143.874L427.689 135.107C423.698 122.659 418.197 113.998 407.594 103.47C396.009 91.966 383.434 85.219 366.795 81.576L364.089 80.984L363.795 53.242C363.52 27.338 363.368 25.319 361.5 22.765C359.083 19.459 352.436 16 348.5 16C343.91 16 337.31 19.765 334.788 23.821C332.582 27.369 332.488 28.436 332.164 53.75L331.828 80H301.96H272.092L271.796 53.071C271.517 27.682 271.382 25.984 269.438 23.383C265.518 18.136 262.323 16.5 256 16.5C249.677 16.5 246.482 18.136 242.562 23.383C240.618 25.984 240.483 27.682 240.204 53.071L239.908 80H205.999H172.09L171.795 52.75C171.462 21.979 171.465 21.994 163.434 18.015C158.257 15.449 154.574 15.47 149.274 18.093ZM363.307 113.492C380.648 118.009 393.976 131.294 398.469 148.542C400.775 157.394 400.775 354.606 398.469 363.458C393.976 380.706 380.648 393.991 363.307 398.508C354.719 400.745 157.281 400.745 148.693 398.508C131.352 393.991 118.024 380.706 113.531 363.458C111.258 354.732 111.222 157.407 113.492 148.693C117.951 131.573 131.209 118.126 148.112 113.581C156.306 111.377 354.873 111.295 363.307 113.492ZM180.112 145.581C163.209 150.126 149.951 163.573 145.492 180.693C143.271 189.218 143.271 322.782 145.492 331.307C150.009 348.648 163.294 361.976 180.542 366.469C189.33 368.758 322.67 368.758 331.458 366.469C348.706 361.976 361.991 348.648 366.508 331.307C368.729 322.782 368.729 189.218 366.508 180.693C361.991 163.352 348.706 150.024 331.458 145.531C322.95 143.315 188.373 143.359 180.112 145.581ZM328.615 178.562C330.134 179.696 332.304 181.866 333.438 183.385C335.475 186.113 335.5 187.008 335.5 256C335.5 324.992 335.475 325.887 333.438 328.615C332.304 330.134 330.134 332.304 328.615 333.438C325.887 335.475 324.992 335.5 256 335.5C187.008 335.5 186.113 335.475 183.385 333.438C181.866 332.304 179.696 330.134 178.562 328.615C176.534 325.9 176.495 324.735 176.208 258.677C176.047 221.73 176.177 190.051 176.498 188.279C177.222 184.271 181.423 179.164 185.45 177.396C187.918 176.312 201.609 176.099 257.177 176.278C324.806 176.497 325.897 176.531 328.615 178.562Z" fill="black"/>
</svg>
