<svg width="512" height="512" viewBox="0 0 512 512" fill="none" xmlns="http://www.w3.org/2000/svg">
<g clip-path="url(#clip0_1208_764)">
<path fill-rule="evenodd" clip-rule="evenodd" d="M248.761 1.95131C242.807 5.09531 241 9.7883 241.002 22.0993C241.004 37.9633 244.826 43.3893 256 43.3893C262.737 43.3893 266.17 41.4273 269.149 35.8723C271.903 30.7373 271.802 13.3823 268.987 7.86331C265.297 0.630306 256.264 -2.00969 248.761 1.95131ZM79.5 71.8483C78.4 72.3063 76.188 74.0683 74.584 75.7633C70.598 79.9753 69.776 88.1723 72.841 93.1313C76.442 98.9583 87.261 108.591 91.528 109.769C102.629 112.834 112.951 102.537 109.89 91.4533C108.742 87.2963 101.219 78.5813 94.6 73.7413C91.596 71.5443 89.643 70.9043 86.1 70.9523C83.57 70.9873 80.6 71.3903 79.5 71.8483ZM417.4 73.7413C410.391 78.8663 403.235 87.3023 401.998 91.8983C399.072 102.763 409.352 112.756 420.395 109.783C424.711 108.62 435.507 99.0403 439.159 93.1313C441.743 88.9513 441.377 80.6363 438.433 76.6023C433.843 70.3163 423.929 68.9673 417.4 73.7413ZM238.67 88.9383C218.601 91.0333 196.673 97.7253 179 107.15L169.5 112.216L147.847 113.903C115.752 116.405 116.516 115.641 114.014 147.736L112.327 169.389L107.261 178.889C86.358 218.086 82.596 266.004 97.032 309.159C113.573 358.605 153.258 398.277 202.774 414.867C263.167 435.1 329.739 419.31 374.643 374.101C440.076 308.225 439.994 202.968 374.457 137.432C343.855 106.83 304.364 89.8433 260.55 88.4353C253.373 88.2053 243.527 88.4313 238.67 88.9383ZM283.17 120.924C335.09 131.504 376.445 170.981 389.537 222.459C404.705 282.103 377.755 344.675 323.502 375.777C276.7 402.606 216.901 398.71 173.5 366.002C108.028 316.662 99.545 221.904 155.268 162.346C178.462 137.555 207.41 122.958 241.5 118.863C251.68 117.64 271.982 118.644 283.17 120.924ZM235 148.38C211.689 153.593 195.289 162.501 178.934 178.835C162.524 195.225 153.237 212.441 148.583 235.097C146.49 245.287 146.49 266.491 148.583 276.681C157.256 318.907 187.304 350.654 229.476 362.149C236.379 364.031 240.084 364.336 256 364.336C272.105 364.336 275.579 364.043 282.832 362.07C322.489 351.286 351.386 322.306 362.26 282.413C364.142 275.51 364.447 271.805 364.447 255.889C364.447 239.973 364.142 236.268 362.26 229.365C351.445 189.688 322.458 160.481 283.344 149.853C272.944 147.026 244.875 146.171 235 148.38ZM281.261 180.602C305.426 189.033 323.755 207.601 331.63 231.63C334.318 239.834 334.497 241.402 334.451 256.389C334.404 271.592 334.25 272.821 331.357 281.055C323.134 304.455 304.717 322.887 281.194 331.261C272.862 334.226 271.835 334.356 256.5 334.365C243.664 334.373 239.314 334.005 234.5 332.506C208.719 324.478 189.58 306.226 180.649 281.15C177.639 272.698 177.529 271.807 177.515 255.889C177.5 239.91 177.599 239.112 180.635 230.628C189.853 204.865 209.907 186.186 236.147 178.925C242.332 177.213 245.803 176.942 258 177.218C271.119 177.514 273.334 177.836 281.261 180.602ZM7.761 242.951C3.539 245.18 0 251.08 0 255.889C0 260.851 3.537 266.612 7.974 268.876C13.493 271.691 30.848 271.792 35.983 269.038C41.538 266.059 43.5 262.626 43.5 255.889C43.5 249.105 41.4 245.43 35.929 242.641C30.799 240.025 12.931 240.222 7.761 242.951ZM476.02 242.641C465.306 248.023 465.286 263.352 475.984 269.037C481.166 271.791 498.508 271.691 504.026 268.876C508.463 266.612 512 260.851 512 255.889C512 250.927 508.463 245.166 504.026 242.902C498.646 240.158 481.285 239.995 476.02 242.641ZM90.594 402.357C86.424 403.855 76.235 413.226 72.825 418.699C71.188 421.327 70.857 423.147 71.219 427.521C71.608 432.207 72.214 433.57 75.267 436.622C78.319 439.675 79.682 440.281 84.368 440.67C91.154 441.232 94.024 439.658 102.717 430.605C106.786 426.368 109.186 422.911 109.9 420.26C113.04 408.597 101.922 398.287 90.594 402.357ZM410.328 402.827C403.477 405.938 400.109 412.867 402.012 419.934C403.234 424.474 410.433 432.943 417.4 438.037C423.929 442.811 433.843 441.462 438.433 435.176C441.377 431.142 441.743 422.827 439.159 418.647C435.548 412.803 424.739 403.188 420.44 401.994C415.358 400.583 415.251 400.592 410.328 402.827ZM247.898 470.159C242.422 473.817 241.003 477.833 241.002 489.679C241 498.02 241.381 500.716 243.013 503.915C245.277 508.352 251.038 511.889 256 511.889C260.962 511.889 266.723 508.352 268.987 503.915C271.802 498.397 271.902 481.055 269.148 475.873C265.015 468.095 255.013 465.405 247.898 470.159Z" fill="black"/>
</g>
<defs>
<clipPath id="clip0_1208_764">
<rect width="512" height="512" fill="white"/>
</clipPath>
</defs>
</svg>
