<svg width="512" height="512" viewBox="0 0 512 512" fill="none" xmlns="http://www.w3.org/2000/svg">
<path fill-rule="evenodd" clip-rule="evenodd" d="M116.351 5.09382C95.5729 8.61282 78.9399 23.1248 71.7439 44.0108L69.5039 50.5108L69.2189 238.511C69.0379 357.517 69.2949 429.495 69.9179 434.641C71.7129 449.471 77.0139 460.296 87.2699 470.079C95.6969 478.116 111.139 485.011 120.714 485.011C123.914 485.011 124.005 485.127 124.028 489.261C124.104 502.907 131.342 510.184 141.504 506.831C146.695 505.118 150.004 499.071 150.004 491.299V486.011H256.004H362.004V491.299C362.004 499.071 365.313 505.118 370.504 506.831C380.618 510.168 387.902 502.905 387.98 489.403L388.004 485.296L393.895 484.68C404.989 483.521 417.669 477.346 425.939 469.076C435.21 459.805 440.379 448.785 442.089 434.641C442.711 429.499 442.964 357.593 442.777 239.011C442.501 63.0088 442.374 51.1478 440.712 45.5918C435.145 26.9838 421.104 12.7518 402.004 6.36082C396.778 4.61282 389.642 4.51382 259.004 4.37082C183.379 4.28782 119.185 4.61382 116.351 5.09382ZM397.623 32.1418C404.42 34.6848 411.209 41.0518 414.334 47.8148C416.48 52.4578 416.507 53.2348 416.782 116.761L417.06 181.011H256.004H94.9479L95.2259 116.761C95.5009 53.1408 95.5249 52.4648 97.6839 47.7908C100.619 41.4398 107.884 34.5818 114.286 32.1208C119.415 30.1498 121.84 30.1138 255.716 30.0628L391.929 30.0108L397.623 32.1418ZM353.422 75.9258C352.278 76.4188 350.14 78.2488 348.672 79.9928L346.004 83.1638L346.039 105.338C346.065 121.446 346.426 128.143 347.357 129.821C349.383 133.473 354.042 135.997 358.769 136.004C362.235 136.01 363.732 135.37 366.769 132.588L370.504 129.165V105.607V82.0488L367.376 78.9208C364.017 75.5618 357.513 74.1668 353.422 75.9258ZM416.77 322.261L416.504 437.511L414.242 442.053C411.255 448.049 405.79 453.554 399.562 456.842L394.504 459.511H256.004H117.504L112.396 456.816C109.587 455.334 105.282 451.889 102.829 449.161C94.4829 439.879 95.0039 448.45 95.0039 320.396V207.011H256.02H417.037L416.77 322.261ZM355.26 250.059C351.345 250.9 349.342 252.457 347.438 256.139C346.284 258.37 346.004 264.899 346.004 289.561V320.211L349.325 323.532C355.406 329.613 364.722 328.802 368.978 321.821C370.883 318.697 370.997 316.837 371 288.711C371.003 264.083 370.742 258.405 369.494 255.991C367.124 251.408 360.954 248.837 355.26 250.059Z" fill="black"/>
</svg>
