<svg width="512" height="512" viewBox="0 0 512 512" fill="none" xmlns="http://www.w3.org/2000/svg">
<g clip-path="url(#clip0_1208_767)">
<path fill-rule="evenodd" clip-rule="evenodd" d="M43.4349 33.7597C23.0469 38.1967 6.40986 54.7097 1.54886 75.3337C-0.669137 84.7437 -0.746137 362.097 1.46686 372.538C4.51786 386.937 15.2459 401.439 28.1279 408.578C41.5829 416.034 37.1019 415.666 119.25 416.046L193 416.387V433.334V450.281H150.148C107.355 450.281 107.291 450.284 103.99 452.531C98.8379 456.038 96.6669 459.62 96.6669 464.615C96.6669 469.67 99.1689 474.579 103.323 477.676L106.147 479.781H256H405.853L408.677 477.676C412.831 474.579 415.333 469.67 415.333 464.615C415.333 459.62 413.162 456.038 408.01 452.531C404.709 450.284 404.645 450.281 361.852 450.281H319V433.334V416.387L392.75 416.046C460.632 415.732 466.938 415.561 472 413.898C491.655 407.439 506.518 391.485 510.533 372.538C512.746 362.097 512.669 84.7437 510.451 75.3337C505.542 54.5077 488.906 38.1237 468.217 33.7387C458.592 31.6987 52.8119 31.7187 43.4349 33.7597ZM468.848 65.7427C474.698 68.9837 479.097 74.4627 480.939 80.8037C481.795 83.7497 482.017 121.462 481.797 226.281L481.5 367.781L479.322 371.849C476.523 377.078 470.323 382.665 465.381 384.41C459.591 386.455 52.4089 386.455 46.6189 384.41C41.6769 382.665 35.4769 377.078 32.6779 371.849L30.4999 367.781L30.2029 226.281C29.9859 123.112 30.2129 83.7247 31.0379 80.8807C33.3869 72.7887 39.2639 66.7397 47.7179 63.7127C50.8599 62.5877 86.3629 62.3947 257.5 62.5697L463.5 62.7807L468.848 65.7427ZM289 433.281V450.281H256H223V433.281V416.281H256H289V433.281Z" fill="black"/>
</g>
<defs>
<clipPath id="clip0_1208_767">
<rect width="512" height="512" fill="white"/>
</clipPath>
</defs>
</svg>
