<svg width="512" height="512" viewBox="0 0 512 512" fill="none" xmlns="http://www.w3.org/2000/svg">
<g clip-path="url(#clip0_1208_769)">
<path fill-rule="evenodd" clip-rule="evenodd" d="M446.5 1.98233C444.3 3.07133 438.058 8.42133 432.629 13.8703L422.758 23.7793L417.129 21.1873C409.061 17.4723 395.891 16.9273 386.096 19.9023C369.656 24.8963 356.986 40.3263 355.364 57.3293L354.775 63.5003L209.273 209.116L63.77 354.732L57.534 355.315C40.427 356.912 24.912 369.602 19.902 386.096C16.941 395.845 17.478 409.078 21.156 417L23.71 422.5L12.946 433.579C1.34498 445.52 -0.869022 449.556 0.418978 456.418C1.29698 461.099 6.85298 466.694 11.485 467.563C18.958 468.965 21.582 467.577 33.412 455.966L44.5 445.084L55.732 456.258L66.964 467.431L56.073 478.469C44.371 490.33 43.014 492.932 44.474 500.712C45.351 505.389 50.775 510.68 55.625 511.589C62.438 512.868 66.503 510.632 78.421 499.054L89.5 488.29L95 490.844C102.922 494.522 116.155 495.059 125.904 492.098C142.398 487.088 155.088 471.573 156.685 454.466L157.268 448.23L302.884 302.727L448.5 157.225L454.967 156.605C461.953 155.936 471.439 152.051 477.675 147.305C483.519 142.859 489.773 133.558 492.124 125.816C495.058 116.159 494.506 102.888 490.844 95.0003L488.29 89.5003L499.054 78.4213C510.655 66.4803 512.869 62.4443 511.581 55.5823C510.703 50.9013 505.147 45.3063 500.515 44.4373C492.949 43.0173 490.268 44.4333 478.469 56.0733L467.431 66.9643L456.214 55.7153L444.997 44.4663L454.99 34.5103C460.487 29.0343 465.714 23.0153 466.606 21.1353C469.908 14.1763 466.599 4.93633 459.619 1.62333C455.09 -0.525668 451.359 -0.423668 446.5 1.98233ZM406.8 49.4273C411.522 51.9223 462.793 104.211 463.555 107.31C467.112 121.759 453.227 132.08 440.946 124.117C435.211 120.399 388.733 73.5063 386.613 69.3003C384.626 65.3583 384.538 59.7893 386.405 56.2003C387.954 53.2233 391.668 49.5593 394 48.7063C396.963 47.6233 404.152 48.0283 406.8 49.4273ZM281.257 281.243L144.509 417.994L119.251 392.751L93.994 367.509L230.743 230.757L367.491 94.0063L392.749 119.249L418.006 144.491L281.257 281.243ZM69.3 386.613C73.506 388.733 120.399 435.211 124.117 440.946C128.693 448.003 127.796 455.131 121.603 460.917C118.273 464.028 109.729 464.96 105.414 462.683C100.547 460.116 49.229 407.875 48.445 404.69C47.394 400.423 48.537 393.174 50.632 390.816C55.681 385.134 63.066 383.471 69.3 386.613Z" fill="black"/>
</g>
<defs>
<clipPath id="clip0_1208_769">
<rect width="512" height="512" fill="white"/>
</clipPath>
</defs>
</svg>
